<?xml version="1.0" encoding="UTF-8"?>
<!DOCTYPE svg PUBLIC "-//W3C//DTD SVG 1.1//EN" "http://www.w3.org/Graphics/SVG/1.1/DTD/svg11.dtd">
<svg xmlns="http://www.w3.org/2000/svg" version="1.1" width="180px" height="180px" style="shape-rendering:geometricPrecision; text-rendering:geometricPrecision; image-rendering:optimizeQuality; fill-rule:evenodd; clip-rule:evenodd" xmlns:xlink="http://www.w3.org/1999/xlink">
<g><path style="opacity:0.996" fill="#fffefe" d="M 10.5,-0.5 C 63.5,-0.5 116.5,-0.5 169.5,-0.5C 173.544,2.54252 176.877,6.20918 179.5,10.5C 179.5,21.1667 179.5,31.8333 179.5,42.5C 169.584,42.181 159.75,42.5144 150,43.5C 143.512,68.1209 136.345,92.4542 128.5,116.5C 120.783,92.4835 113.617,68.1502 107,43.5C 96.9158,42.5139 86.7491,42.1806 76.5,42.5C 76.5,44.8333 76.5,47.1667 76.5,49.5C 79.5,50.1667 82.5,50.8333 85.5,51.5C 84.8548,76.834 84.1882,102.167 83.5,127.5C 80.2154,127.928 77.2154,128.928 74.5,130.5C 73.5386,132.265 73.2053,134.265 73.5,136.5C 84.6794,136.828 95.6794,136.495 106.5,135.5C 106.799,133.396 106.466,131.396 105.5,129.5C 102.833,128.5 100.167,127.5 97.5,126.5C 96.7773,104.507 96.944,82.5067 98,60.5C 104.843,82.7037 111.51,105.037 118,127.5C 118.374,128.416 118.874,129.25 119.5,130C 125.204,130.53 130.871,130.197 136.5,129C 144.041,106.336 151.041,83.5027 157.5,60.5C 158.666,82.4924 158.833,104.492 158,126.5C 155.282,127.347 152.616,128.347 150,129.5C 149.503,131.81 149.337,134.143 149.5,136.5C 159.5,136.5 169.5,136.5 179.5,136.5C 179.5,147.5 179.5,158.5 179.5,169.5C 176.457,173.544 172.791,176.877 168.5,179.5C 115.5,179.5 62.5,179.5 9.5,179.5C 5.45643,176.457 2.12309,172.791 -0.5,168.5C -0.5,157.833 -0.5,147.167 -0.5,136.5C 10.8333,136.5 22.1667,136.5 33.5,136.5C 33.8016,133.941 33.4682,131.607 32.5,129.5C 28.4678,128.715 24.4678,127.715 20.5,126.5C 20.5,118.833 20.5,111.167 20.5,103.5C 25.3633,103.819 30.03,103.486 34.5,102.5C 47.6388,101.687 56.1388,95.0207 60,82.5C 62.7074,71.7543 61.7074,61.421 57,51.5C 53.1709,47.0004 48.3376,44.1671 42.5,43C 28.1705,42.5001 13.8372,42.3334 -0.5,42.5C -0.5,31.5 -0.5,20.5 -0.5,9.5C 2.54252,5.45643 6.20918,2.12309 10.5,-0.5 Z"/></g>
<g><path style="opacity:1" fill="#ff148b" d="M -0.5,42.5 C 13.8372,42.3334 28.1705,42.5001 42.5,43C 48.3376,44.1671 53.1709,47.0004 57,51.5C 61.7074,61.421 62.7074,71.7543 60,82.5C 56.1388,95.0207 47.6388,101.687 34.5,102.5C 29.5,102.5 24.5,102.5 19.5,102.5C 19.1743,110.684 19.5076,118.684 20.5,126.5C 24.4678,127.715 28.4678,128.715 32.5,129.5C 32.5,131.5 32.5,133.5 32.5,135.5C 21.5,135.5 10.5,135.5 -0.5,135.5C -0.5,133.167 -0.5,130.833 -0.5,128.5C 1.5,128.167 3.5,127.833 5.5,127.5C 5.5,102.167 5.5,76.8333 5.5,51.5C 3.5,51.1667 1.5,50.8333 -0.5,50.5C -0.5,47.8333 -0.5,45.1667 -0.5,42.5 Z"/></g>
<g><path style="opacity:1" fill="#ff188c" d="M 179.5,42.5 C 179.5,44.8333 179.5,47.1667 179.5,49.5C 177.135,50.0084 174.801,50.6751 172.5,51.5C 171.76,76.8546 172.427,102.188 174.5,127.5C 176.071,128.309 177.738,128.643 179.5,128.5C 179.5,131.167 179.5,133.833 179.5,136.5C 169.5,136.5 159.5,136.5 149.5,136.5C 149.337,134.143 149.503,131.81 150,129.5C 152.616,128.347 155.282,127.347 158,126.5C 158.833,104.492 158.666,82.4924 157.5,60.5C 151.041,83.5027 144.041,106.336 136.5,129C 130.871,130.197 125.204,130.53 119.5,130C 118.874,129.25 118.374,128.416 118,127.5C 111.51,105.037 104.843,82.7037 98,60.5C 96.944,82.5067 96.7773,104.507 97.5,126.5C 100.167,127.5 102.833,128.5 105.5,129.5C 106.466,131.396 106.799,133.396 106.5,135.5C 95.8333,135.5 85.1667,135.5 74.5,135.5C 74.5,133.833 74.5,132.167 74.5,130.5C 77.2154,128.928 80.2154,127.928 83.5,127.5C 84.1882,102.167 84.8548,76.834 85.5,51.5C 82.5,50.8333 79.5,50.1667 76.5,49.5C 76.5,47.1667 76.5,44.8333 76.5,42.5C 86.7491,42.1806 96.9158,42.5139 107,43.5C 113.617,68.1502 120.783,92.4835 128.5,116.5C 136.345,92.4542 143.512,68.1209 150,43.5C 159.75,42.5144 169.584,42.181 179.5,42.5 Z"/></g>
<g><path style="opacity:1" fill="#fffbfd" d="M 179.5,49.5 C 179.5,75.8333 179.5,102.167 179.5,128.5C 177.738,128.643 176.071,128.309 174.5,127.5C 172.427,102.188 171.76,76.8546 172.5,51.5C 174.801,50.6751 177.135,50.0084 179.5,49.5 Z"/></g>
<g><path style="opacity:1" fill="#fff8fc" d="M -0.5,50.5 C 1.5,50.8333 3.5,51.1667 5.5,51.5C 5.5,76.8333 5.5,102.167 5.5,127.5C 3.5,127.833 1.5,128.167 -0.5,128.5C -0.5,102.5 -0.5,76.5 -0.5,50.5 Z"/></g>
<g><path style="opacity:1" fill="#fffdfe" d="M 37.5,93.5 C 31.8333,93.5 26.1667,93.5 20.5,93.5C 20.5,79.8333 20.5,66.1667 20.5,52.5C 27.1384,51.502 33.805,51.3354 40.5,52C 42.0412,53.5793 43.2078,55.4127 44,57.5C 45.5867,67.0916 45.9201,76.7583 45,86.5C 44.5614,91.1069 42.0614,93.4402 37.5,93.5 Z"/></g>
<g><path style="opacity:1" fill="#ffa7d6" d="M 20.5,52.5 C 20.5,66.1667 20.5,79.8333 20.5,93.5C 26.1667,93.5 31.8333,93.5 37.5,93.5C 31.69,94.4896 25.69,94.8229 19.5,94.5C 19.1709,80.3234 19.5042,66.3234 20.5,52.5 Z"/></g>
<g><path style="opacity:1" fill="#ff9fd2" d="M 34.5,102.5 C 30.03,103.486 25.3633,103.819 20.5,103.5C 20.5,111.167 20.5,118.833 20.5,126.5C 19.5076,118.684 19.1743,110.684 19.5,102.5C 24.5,102.5 29.5,102.5 34.5,102.5 Z"/></g>
<g><path style="opacity:1" fill="#ff56af" d="M 32.5,129.5 C 33.4682,131.607 33.8016,133.941 33.5,136.5C 22.1667,136.5 10.8333,136.5 -0.5,136.5C -0.5,136.167 -0.5,135.833 -0.5,135.5C 10.5,135.5 21.5,135.5 32.5,135.5C 32.5,133.5 32.5,131.5 32.5,129.5 Z"/></g>
<g><path style="opacity:1" fill="#ff51ad" d="M 74.5,130.5 C 74.5,132.167 74.5,133.833 74.5,135.5C 85.1667,135.5 95.8333,135.5 106.5,135.5C 95.6794,136.495 84.6794,136.828 73.5,136.5C 73.2053,134.265 73.5386,132.265 74.5,130.5 Z"/></g>
</svg>
